<svg xmlns="http://www.w3.org/2000/svg" xmlns:xlink="http://www.w3.org/1999/xlink" version="1.1" x="0px" y="0px" viewBox="0 0 100 125" style="enable-background:new 0 0 100 100;" xml:space="preserve"><style type="text/css">
	.st0{display:none;}
	.st1{display:inline;}
</style><g><path d="M67.2,51.8c0-2.3-0.9-4.9-1.8-7.3c-0.3-0.9-0.6-1.7-0.8-2.5l-0.1-0.5c-0.8-2.8-2.5-8.6-2.5-18.4v-1.5H38.1v1.5   c0,9.7-1.7,15.6-2.5,18.4l-0.1,0.5c-0.2,0.7-0.5,1.6-0.8,2.5c-0.8,2.4-1.8,5-1.8,7.3c0,5.7,2.8,11,7.6,14.2c0.5,0.3,1,0.6,1.5,0.9   l-3.2,7.9c-0.3,0.8-0.2,1.6,0.2,2.3c0.5,0.7,1.2,1.1,2.1,1.1H59c0.8,0,1.6-0.4,2.1-1.1c0.5-0.7,0.6-1.6,0.2-2.3L58.1,67   c0.5-0.3,1-0.6,1.5-0.9C64.3,62.8,67.2,57.5,67.2,51.8z M58.2,75.3H41.8l1.9-4.8h12.5L58.2,75.3z M57.9,63.6   c-0.5,0.3-1,0.6-1.6,0.9c-1.1,0.6-1.7,1.8-1.3,3H44.9c0.4-1.2-0.1-2.4-1.3-3c-0.5-0.3-1.1-0.6-1.6-0.9c-3.9-2.6-6.2-7-6.2-11.7   c0-1.8,0.8-4.2,1.6-6.3c0.3-0.9,0.6-1.8,0.9-2.6l0.1-0.5c0.8-2.8,2.4-8.4,2.6-17.7H59c0.2,9.3,1.8,14.9,2.6,17.7l0.1,0.5   c0.2,0.8,0.5,1.7,0.9,2.6c0.7,2.1,1.6,4.5,1.6,6.3C64.2,56.5,61.8,60.9,57.9,63.6z"/><path d="M45.5,27.7c-0.8-0.1-1.5,0.6-1.6,1.4C43.3,36.3,42,41,41.3,43.2l-0.1,0.5c-0.3,0.9-0.6,1.8-0.9,2.8   c-0.3,0.8,0.1,1.6,0.9,1.9c0.2,0.1,0.3,0.1,0.5,0.1c0.6,0,1.2-0.4,1.4-1c0.4-1,0.7-2,1-3l0.1-0.5c0.7-2.4,2.1-7.3,2.6-14.8   C46.9,28.5,46.3,27.7,45.5,27.7z"/></g><text x="0" y="115" fill="#000000" font-size="5px" font-weight="bold" font-family="'Helvetica Neue', Helvetica, Arial-Unicode, Arial, Sans-serif">Created by Henry Chung</text><text x="0" y="120" fill="#000000" font-size="5px" font-weight="bold" font-family="'Helvetica Neue', Helvetica, Arial-Unicode, Arial, Sans-serif">from the Noun Project</text></svg>